<svg xmlns="http://www.w3.org/2000/svg" width="24" height="24" fill="none" viewBox="0 0 24 24"><g clip-path="url(#a)"><path fill="#E88102" d="M12 24c6.343 0 11.484-5.373 11.484-12S18.343 0 12 0 .516 5.373.516 12 5.657 24 12 24"/><path fill="#FDD835" d="M12 22.734c6.279 0 11.368-5.089 11.368-11.367S18.278 0 12 0 .634 5.09.634 11.367 5.723 22.734 12 22.734"/><path fill="#fff" d="M16.537.943 1.574 15.901a11.3 11.3 0 0 1-.91-3.703L12.83.029a11.5 11.5 0 0 1 3.708.914m5.366 4.847L6.422 21.271a11.4 11.4 0 0 1-2.602-2.016L19.894 3.188a11.3 11.3 0 0 1 2.01 2.601M19.43 2.76 3.397 18.793c-.248-.29-.488-.596-.708-.91l15.83-15.83q.472.333.91.709m3.581 5.769L9.165 22.378q-.626-.163-1.224-.39l14.681-14.68q.226.597.39 1.223" opacity="0.5"/><path fill="#fff" d="M23.367 11.367c0 .08 0 .155-.005.235C23.24 5.432 18.202.469 12 .469S.76 5.433.637 11.602c0-.08-.004-.155-.004-.235C.633 5.091 5.723 0 12 0c6.276 0 11.367 5.09 11.367 11.367" opacity="0.5"/><path fill="#fff" d="M21.234 11.86a8.91 8.91 0 0 1-8.906 8.906A8.9 8.9 0 0 1 5.46 17.53 8.908 8.908 0 0 0 18.867 5.812a8.9 8.9 0 0 1 2.367 6.047" opacity="0.5"/><path fill="#F39E09" d="M12 20.39a8.906 8.906 0 1 0 0-17.812 8.906 8.906 0 0 0 0 17.813"/><path fill="#E88102" d="M18.75 5.672A8.908 8.908 0 0 0 6.188 18.235 8.908 8.908 0 1 1 18.75 5.671"/><path fill="#FFC765" fill-rule="evenodd" d="M10.455 6.65h-.237a3.23 3.23 0 0 0-3.109 2.355l-1.362 4.843a.764.764 0 0 0 .736.97h4.99l2.67-9.38a6.2 6.2 0 0 1-3.688 1.212M8.13 11.623a.5.5 0 0 1-.26-.068.38.38 0 0 1-.178-.321c0-.226.237-.518.46-.744h-.277a.17.17 0 1 1 0-.341h.718a.17.17 0 0 1 .109.302c-.317.263-.669.648-.668.782a.03.03 0 0 0 .017.032c.049.03.186.028.41-.082a.171.171 0 1 1 .15.308 1.1 1.1 0 0 1-.481.132m1.608-1.466.668.007a.162.162 0 0 1 .099.29 3.7 3.7 0 0 0-.605.59.5.5 0 0 0-.1.187c.069.044.185.044.278.027a.63.63 0 0 0 .392-.24.171.171 0 0 1 .27.208 1 1 0 0 1-.605.36c-.26.056-.706-.04-.658-.397.041-.24.268-.494.497-.704l-.24-.002a.163.163 0 0 1 .003-.326" clip-rule="evenodd"/><path fill="#FFE280" fill-rule="evenodd" d="M12.982 7.862h4.534a.764.764 0 0 1 .735.971l-1.362 4.845a3.23 3.23 0 0 1-3.108 2.354h-2.272l-.515.954-.784-.322-.811 2.411v-3.812l.955.32 2.048-7.28a.6.6 0 0 1 .58-.44m2.658 3.994a.17.17 0 0 1-.171-.171.283.283 0 0 0-.282-.293.283.283 0 0 0-.282.293.171.171 0 0 1-.291.12.17.17 0 0 1-.05-.12.622.622 0 0 1 1.07-.452.62.62 0 0 1 .177.452.17.17 0 0 1-.171.17m-2.277.183a.453.453 0 1 0 0-.905.453.453 0 0 0 0 .905" clip-rule="evenodd"/></g><defs><clipPath id="a"><path fill="#fff" d="M0 0h24v24H0z"/></clipPath></defs></svg>